<?xml version="1.0" encoding="UTF-8" standalone="no"?>
<!DOCTYPE svg PUBLIC "-//W3C//DTD SVG 1.1//EN"
 "http://www.w3.org/Graphics/SVG/1.1/DTD/svg11.dtd">
<!-- Generated by graphviz version 2.38.0 (20140413.2041)
 -->
<!-- Title: models_diagram Pages: 1 -->
<svg width="656pt" height="273pt"
 viewBox="0.00 0.00 656.34 273.00" xmlns="http://www.w3.org/2000/svg" xmlns:xlink="http://www.w3.org/1999/xlink">
<g id="graph0" class="graph" transform="scale(1 1) rotate(0) translate(4 269)">
<title>models_diagram</title>
<polygon fill="none" stroke="none" points="-4,4 -4,-269 652.343,-269 652.343,4 -4,4"/>
<!-- _diagram_info -->
<g id="node1" class="node"><title>_diagram_info</title>
<text text-anchor="start" x="8" y="-243.6" font-family="Times,serif" font-size="13.00">Models diagram</text>
<text text-anchor="start" x="8" y="-229.6" font-family="Times,serif" font-size="13.00">Date: Oct 02 2017 &#45; 18:19</text>
<text text-anchor="start" x="8" y="-215.6" font-family="Times,serif" font-size="13.00">Migration version: 20170830195647</text>
<text text-anchor="start" x="8" y="-201.6" font-family="Times,serif" font-size="13.00">Generated by RailRoady 1.5.3</text>
<text text-anchor="start" x="8" y="-187.6" font-family="Times,serif" font-size="13.00">http://railroady.prestonlee.com</text>
</g>
<!-- Category -->
<g id="node2" class="node"><title>Category</title>
<path fill="none" stroke="black" d="M244,-173.5C244,-173.5 464,-173.5 464,-173.5 470,-173.5 476,-179.5 476,-185.5 476,-185.5 476,-252.5 476,-252.5 476,-258.5 470,-264.5 464,-264.5 464,-264.5 244,-264.5 244,-264.5 238,-264.5 232,-258.5 232,-252.5 232,-252.5 232,-185.5 232,-185.5 232,-179.5 238,-173.5 244,-173.5"/>
<text text-anchor="middle" x="354" y="-249.3" font-family="Times,serif" font-size="14.00">Category</text>
<polyline fill="none" stroke="black" points="232,-241.5 476,-241.5 "/>
<text text-anchor="start" x="240" y="-226.3" font-family="Times,serif" font-size="14.00">id :bigint</text>
<text text-anchor="start" x="240" y="-211.3" font-family="Times,serif" font-size="14.00">name :character varying</text>
<text text-anchor="start" x="240" y="-196.3" font-family="Times,serif" font-size="14.00">created_at :timestamp without time zone</text>
<text text-anchor="start" x="240" y="-181.3" font-family="Times,serif" font-size="14.00">updated_at :timestamp without time zone</text>
</g>
<!-- Product -->
<g id="node3" class="node"><title>Product</title>
<path fill="none" stroke="black" d="M244,-0.5C244,-0.5 464,-0.5 464,-0.5 470,-0.5 476,-6.5 476,-12.5 476,-12.5 476,-124.5 476,-124.5 476,-130.5 470,-136.5 464,-136.5 464,-136.5 244,-136.5 244,-136.5 238,-136.5 232,-130.5 232,-124.5 232,-124.5 232,-12.5 232,-12.5 232,-6.5 238,-0.5 244,-0.5"/>
<text text-anchor="middle" x="354" y="-121.3" font-family="Times,serif" font-size="14.00">Product</text>
<polyline fill="none" stroke="black" points="232,-113.5 476,-113.5 "/>
<text text-anchor="start" x="240" y="-98.3" font-family="Times,serif" font-size="14.00">id :bigint</text>
<text text-anchor="start" x="240" y="-83.3" font-family="Times,serif" font-size="14.00">name :character varying</text>
<text text-anchor="start" x="240" y="-68.3" font-family="Times,serif" font-size="14.00">category_id :bigint</text>
<text text-anchor="start" x="240" y="-53.3" font-family="Times,serif" font-size="14.00">created_at :timestamp without time zone</text>
<text text-anchor="start" x="240" y="-38.3" font-family="Times,serif" font-size="14.00">updated_at :timestamp without time zone</text>
<text text-anchor="start" x="240" y="-23.3" font-family="Times,serif" font-size="14.00">price :integer</text>
<text text-anchor="start" x="240" y="-8.3" font-family="Times,serif" font-size="14.00">premium :boolean</text>
</g>
<!-- Category&#45;&gt;Product -->
<g id="edge1" class="edge"><title>Category&#45;&gt;Product</title>
<path fill="none" stroke="#2964aa" d="M354,-165.386C354,-159.259 354,-152.916 354,-146.546"/>
<ellipse fill="none" stroke="#2964aa" cx="354" cy="-169.445" rx="4" ry="4"/>
<polygon fill="#2964aa" stroke="#2964aa" points="354,-146.541 358.5,-136.541 354,-141.541 354,-136.541 354,-136.541 354,-136.541 354,-141.541 349.5,-136.541 354,-146.541 354,-146.541"/>
</g>
<!-- ApplicationRecord -->
<g id="node4" class="node"><title>ApplicationRecord</title>
<ellipse fill="none" stroke="black" cx="571" cy="-219" rx="77.1866" ry="18"/>
<text text-anchor="middle" x="571" y="-215.3" font-family="Times,serif" font-size="14.00">ApplicationRecord</text>
</g>
</g>
</svg>
